<svg width="112" height="28" viewBox="0 0 112 28" fill="none" xmlns="http://www.w3.org/2000/svg">
<path d="M23.4141 23.7695H20.5244V13.3066H20.4385L16.2275 23.6191H14.1865L9.97559 13.3066H9.88965V23.7695H7V8.26855H10.7598L15.1641 19.2578H15.25L19.6543 8.26855H23.4141V23.7695Z" fill="white"/>
<path d="M29.2363 17.9688C29.2363 18.9785 29.5192 19.7734 30.085 20.3535C30.6579 20.9551 31.46 21.2559 32.4912 21.2559C33.5153 21.2559 34.3138 20.9551 34.8867 20.3535C35.4525 19.7734 35.7354 18.9785 35.7354 17.9688V8.26855H38.9795V18.291C38.9795 20.0098 38.3923 21.3955 37.2178 22.4482C36.0361 23.5081 34.4606 24.0381 32.4912 24.0381C30.5146 24.0381 28.9355 23.5081 27.7539 22.4482C26.5794 21.3955 25.9922 20.0098 25.9922 18.291V8.26855H29.2363V17.9688Z" fill="white"/>
<path d="M44.1143 19.3545C44.1859 19.9847 44.5225 20.4967 45.124 20.8906C45.7184 21.2773 46.4489 21.4707 47.3154 21.4707C48.1748 21.4707 48.8766 21.2845 49.4209 20.9121C49.958 20.5469 50.2266 20.0778 50.2266 19.5049C50.2266 19.0036 50.026 18.599 49.625 18.291C49.224 17.9831 48.5544 17.7253 47.6162 17.5176L45.5967 17.0771C42.7536 16.4684 41.332 15.0254 41.332 12.748C41.332 11.3301 41.887 10.1807 42.9971 9.2998C44.0999 8.43327 45.5215 8 47.2617 8C49.0521 8 50.4844 8.42611 51.5586 9.27832C52.6185 10.1234 53.1628 11.2513 53.1914 12.6621H50.1514C50.1012 12.0104 49.8112 11.4948 49.2812 11.1152C48.7585 10.7428 48.0889 10.5566 47.2725 10.5566C46.4704 10.5566 45.8258 10.7321 45.3389 11.083C44.8447 11.4339 44.5977 11.8958 44.5977 12.4688C44.5977 12.9414 44.7982 13.3281 45.1992 13.6289C45.5931 13.9154 46.2376 14.1624 47.1328 14.3701L49.0127 14.7676C50.5667 15.097 51.6982 15.6126 52.4072 16.3145C53.1162 17.0091 53.4707 17.9473 53.4707 19.1289C53.4707 20.6328 52.9049 21.8252 51.7734 22.7061C50.6419 23.5941 49.113 24.0381 47.1865 24.0381C45.3174 24.0381 43.8314 23.6227 42.7285 22.792C41.6185 21.9541 41.0384 20.8083 40.9883 19.3545H44.1143Z" fill="white"/>
<path d="M55.4688 23.7695V8.26855H58.7129V23.7695H55.4688Z" fill="white"/>
<path d="M68.1445 24.0381C65.8815 24.0381 64.0947 23.3255 62.7842 21.9004C61.4665 20.4681 60.8076 18.5059 60.8076 16.0137C60.8076 13.5286 61.4701 11.57 62.7949 10.1377C64.1055 8.71257 65.8887 8 68.1445 8C70.0208 8 71.5928 8.53711 72.8604 9.61133C74.1351 10.6999 74.8333 12.1071 74.9551 13.833H71.7969C71.6465 12.8805 71.2383 12.1178 70.5723 11.5449C69.8991 10.972 69.0898 10.6855 68.1445 10.6855C66.9199 10.6855 65.9424 11.1618 65.2119 12.1143C64.4814 13.0811 64.1162 14.3773 64.1162 16.0029C64.1162 17.6572 64.4779 18.9606 65.2012 19.9131C65.9245 20.8727 66.9092 21.3525 68.1553 21.3525C69.1149 21.3525 69.9206 21.0876 70.5723 20.5576C71.224 20.0277 71.6357 19.3044 71.8076 18.3877H74.9658C74.7868 20.1136 74.0814 21.4886 72.8496 22.5127C71.6178 23.5296 70.0495 24.0381 68.1445 24.0381Z" fill="white"/>
<path fill-rule="evenodd" clip-rule="evenodd" d="M92.5654 7.59397C93.8329 7.58536 95.0897 7.82719 96.2635 8.30561C97.4397 8.78498 98.5093 9.4924 99.4108 10.3871C100.312 11.2818 101.028 12.3461 101.516 13.5186C102.004 14.6911 102.256 15.9486 102.256 17.2188V22.25C102.256 22.8965 101.999 23.5165 101.542 23.9736C101.085 24.4307 100.465 24.6875 99.8183 24.6875H98.3808C97.7343 24.6875 97.1143 24.4307 96.6572 23.9736C96.2001 23.5165 95.9433 22.8965 95.9433 22.25V18.6563C95.9433 18.0098 96.2001 17.3898 96.6572 16.9327C97.1143 16.4756 97.7343 16.2188 98.3808 16.2188H100.19C100.102 15.5564 99.9278 14.9069 99.6698 14.2874C99.283 13.3586 98.7162 12.5154 98.002 11.8067C97.2878 11.0979 96.4404 10.5375 95.5086 10.1577C94.5769 9.77793 93.5791 9.58634 92.573 9.59397H92.5578C91.5517 9.58634 90.5539 9.77793 89.6221 10.1577C88.6904 10.5375 87.843 11.0979 87.1288 11.8067C86.4146 12.5154 85.8478 13.3586 85.461 14.2874C85.203 14.9069 85.0285 15.5564 84.9409 16.2188H86.75C87.3965 16.2188 88.0165 16.4756 88.4736 16.9327C88.9307 17.3898 89.1875 18.0098 89.1875 18.6563V22.25C89.1875 22.8965 88.9307 23.5165 88.4736 23.9736C88.0165 24.4307 87.3965 24.6875 86.75 24.6875H85.3125C84.666 24.6875 84.046 24.4307 83.5889 23.9736C83.1318 23.5165 82.875 22.8965 82.875 22.25V17.2188C82.875 15.9486 83.1264 14.6911 83.6147 13.5186C84.1029 12.3461 84.8184 11.2818 85.7199 10.3871C86.6215 9.4924 87.6911 8.78498 88.8673 8.30561C90.0411 7.82719 91.2979 7.58536 92.5654 7.59397ZM84.875 18.2188V22.25C84.875 22.366 84.9211 22.4773 85.0031 22.5594C85.0852 22.6414 85.1965 22.6875 85.3125 22.6875H86.75C86.866 22.6875 86.9773 22.6414 87.0594 22.5594C87.1414 22.4773 87.1875 22.366 87.1875 22.25V18.6563C87.1875 18.5402 87.1414 18.4289 87.0594 18.3469C86.9773 18.2648 86.866 18.2188 86.75 18.2188H84.875ZM100.256 18.2188H98.3808C98.2648 18.2188 98.1535 18.2648 98.0714 18.3469C97.9894 18.4289 97.9433 18.5402 97.9433 18.6563V22.25C97.9433 22.366 97.9894 22.4773 98.0714 22.5594C98.1535 22.6414 98.2648 22.6875 98.3808 22.6875H99.8183C99.9343 22.6875 100.046 22.6414 100.128 22.5594C100.21 22.4773 100.256 22.366 100.256 22.25V18.2188ZM92.5654 8.594V8.59403V8.594Z" fill="white"/>
</svg>
